<?xml version="1.0" encoding="UTF-8"?>
<svg version="1.1" xmlns="http://www.w3.org/2000/svg" width="600" height="600">
<path d="M0 0 C198 0 396 0 600 0 C600 198 600 396 600 600 C402 600 204 600 0 600 C0 402 0 204 0 0 Z " fill="#FEFEFE" transform="translate(0,0)"/>
<path d="M0 0 C2.39689781 -0.00605972 4.79372142 -0.01728203 7.19059372 -0.02972031 C24.53910565 -0.10820842 41.76154969 0.32692473 59.05830002 1.72818375 C59.80833424 1.78803074 60.55836845 1.84787773 61.33113098 1.90953827 C97.0837752 4.82962256 138.83115183 10.75829735 164.32392502 38.36880875 C166.61662129 41.24164071 168.54300457 44.15721555 170.32392502 47.36880875 C170.71064377 48.03525406 171.09736252 48.70169937 171.49580002 49.38834 C178.62525387 62.48483674 178.48147777 80.93477846 174.69892502 95.05630875 C169.01876224 111.56055795 159.62985386 125.50386915 144.11689377 134.15787125 C121.85786045 144.87811742 98.82929482 143.26575854 75.01142502 139.99380875 C73.30259497 139.76867588 71.59360997 139.54471611 69.88447189 139.32193375 C65.80116864 138.78690557 61.71991106 138.23799951 57.63929367 137.68289566 C53.95823084 137.18354811 50.27581922 136.69439665 46.59345627 136.20474625 C44.50361252 135.92610041 42.41376877 135.64745458 40.32392502 135.36880875 C40.45669846 136.58270279 40.58947189 137.79659683 40.72626877 139.04727554 C41.91725779 150.23695259 42.7383146 161.38902652 43.21531296 172.63055801 C43.40434311 177.06992495 43.61238978 181.50840368 43.82001877 185.94693375 C43.88170494 187.27380959 43.88170494 187.27380959 43.9446373 188.627491 C44.50743767 200.53169878 45.31187368 212.41859425 46.1212883 224.30826187 C46.29535605 226.93731405 46.45518052 229.56620839 46.60126877 232.19693375 C46.95984686 238.61359427 47.46516138 244.9844816 48.19892502 251.36880875 C48.37093131 252.90525239 48.54279793 254.44171167 48.71455002 255.97818375 C49.03415441 258.83722985 49.36329778 261.69438352 49.70869064 264.55044937 C51.81314693 282.21391897 52.60348169 299.64389077 52.57392502 317.43130875 C52.57305893 318.41240616 52.57219284 319.39350357 52.57130051 320.40433121 C52.50290959 350.34700449 51.20333344 382.36263224 29.39423752 405.40787125 C18.93194854 415.28191907 5.65202424 418.94112313 -8.42607498 418.74380875 C-10.01041336 418.72749405 -10.01041336 418.72749405 -11.62675858 418.71084976 C-27.96532703 418.37866312 -43.48400415 414.39505831 -55.59013748 402.716465 C-68.6398355 388.02944532 -75.78290588 369.62753066 -79.61357498 350.55630875 C-79.86590897 349.300923 -80.11824295 348.04553726 -80.37822342 346.75210953 C-83.98396027 328.03859835 -85.55957557 308.98065799 -87.41142654 290.0314064 C-87.66696552 287.46045804 -87.93476611 284.89112798 -88.20732498 282.32193375 C-89.52878097 269.77120164 -90.42090215 257.21534656 -91.17607498 244.61880875 C-91.27029236 243.06626892 -91.27029236 243.06626892 -91.36641312 241.48236465 C-91.7525915 235.11166867 -92.12930438 228.74046349 -92.50035477 222.36886978 C-92.66598721 219.54103667 -92.83521288 216.71344472 -93.00566483 213.88589859 C-94.47476276 189.35953514 -94.94082234 164.93736317 -94.67607498 140.36880875 C-97.05129385 140.65877053 -99.42625433 140.95061456 -101.80107498 141.24380875 C-102.89046623 141.37732491 -102.89046623 141.37732491 -104.00186539 141.51353836 C-108.59763186 142.08456215 -113.1675024 142.75242932 -117.74248123 143.4742775 C-125.04443588 144.52864788 -132.24384001 144.71397475 -139.61357498 144.68130875 C-140.93027176 144.6763942 -142.24696854 144.67147964 -143.60356522 144.66641617 C-164.37565595 144.41540559 -183.47498988 139.22350649 -198.92607498 124.68130875 C-212.00051542 110.90238181 -216.48547787 94.70275213 -216.26347733 76.16714859 C-215.61107263 58.67992662 -207.83095678 43.25192389 -195.03935623 31.32193375 C-177.63496633 16.93814044 -155.85188919 12.43804115 -134.17607498 8.74380875 C-133.0462117 8.54972427 -131.91634842 8.3556398 -130.75224686 8.15567398 C-109.73773258 4.74153905 -88.48626295 2.84765535 -67.23857498 1.68130875 C-66.11396866 1.61876907 -64.98936234 1.5562294 -63.83067703 1.49179459 C-42.55860235 0.35043062 -21.29873994 0.04192607 0 0 Z " fill="#FDFDFD" transform="translate(310.67607498168945,100.63119125366211)"/>
<path d="M0 0 C2.39689781 -0.00605972 4.79372142 -0.01728203 7.19059372 -0.02972031 C24.53910565 -0.10820842 41.76154969 0.32692473 59.05830002 1.72818375 C59.80833424 1.78803074 60.55836845 1.84787773 61.33113098 1.90953827 C97.0837752 4.82962256 138.83115183 10.75829735 164.32392502 38.36880875 C166.61662129 41.24164071 168.54300457 44.15721555 170.32392502 47.36880875 C170.71064377 48.03525406 171.09736252 48.70169937 171.49580002 49.38834 C178.62525387 62.48483674 178.48147777 80.93477846 174.69892502 95.05630875 C169.01876224 111.56055795 159.62985386 125.50386915 144.11689377 134.15787125 C121.85786045 144.87811742 98.82929482 143.26575854 75.01142502 139.99380875 C73.30259497 139.76867588 71.59360997 139.54471611 69.88447189 139.32193375 C65.80116864 138.78690557 61.71991106 138.23799951 57.63929367 137.68289566 C53.95823084 137.18354811 50.27581922 136.69439665 46.59345627 136.20474625 C44.50361252 135.92610041 42.41376877 135.64745458 40.32392502 135.36880875 C40.45669846 136.58270279 40.58947189 137.79659683 40.72626877 139.04727554 C41.91725779 150.23695259 42.7383146 161.38902652 43.21531296 172.63055801 C43.40434311 177.06992495 43.61238978 181.50840368 43.82001877 185.94693375 C43.88170494 187.27380959 43.88170494 187.27380959 43.9446373 188.627491 C44.50743767 200.53169878 45.31187368 212.41859425 46.1212883 224.30826187 C46.29535605 226.93731405 46.45518052 229.56620839 46.60126877 232.19693375 C46.95984686 238.61359427 47.46516138 244.9844816 48.19892502 251.36880875 C48.37093131 252.90525239 48.54279793 254.44171167 48.71455002 255.97818375 C49.03415441 258.83722985 49.36329778 261.69438352 49.70869064 264.55044937 C51.81314693 282.21391897 52.60348169 299.64389077 52.57392502 317.43130875 C52.57305893 318.41240616 52.57219284 319.39350357 52.57130051 320.40433121 C52.50290959 350.34700449 51.20333344 382.36263224 29.39423752 405.40787125 C18.93194854 415.28191907 5.65202424 418.94112313 -8.42607498 418.74380875 C-10.01041336 418.72749405 -10.01041336 418.72749405 -11.62675858 418.71084976 C-27.96532703 418.37866312 -43.48400415 414.39505831 -55.59013748 402.716465 C-68.6398355 388.02944532 -75.78290588 369.62753066 -79.61357498 350.55630875 C-79.86590897 349.300923 -80.11824295 348.04553726 -80.37822342 346.75210953 C-83.98396027 328.03859835 -85.55957557 308.98065799 -87.41142654 290.0314064 C-87.66696552 287.46045804 -87.93476611 284.89112798 -88.20732498 282.32193375 C-89.52878097 269.77120164 -90.42090215 257.21534656 -91.17607498 244.61880875 C-91.27029236 243.06626892 -91.27029236 243.06626892 -91.36641312 241.48236465 C-91.7525915 235.11166867 -92.12930438 228.74046349 -92.50035477 222.36886978 C-92.66598721 219.54103667 -92.83521288 216.71344472 -93.00566483 213.88589859 C-94.47476276 189.35953514 -94.94082234 164.93736317 -94.67607498 140.36880875 C-97.05129385 140.65877053 -99.42625433 140.95061456 -101.80107498 141.24380875 C-102.89046623 141.37732491 -102.89046623 141.37732491 -104.00186539 141.51353836 C-108.59763186 142.08456215 -113.1675024 142.75242932 -117.74248123 143.4742775 C-125.04443588 144.52864788 -132.24384001 144.71397475 -139.61357498 144.68130875 C-140.93027176 144.6763942 -142.24696854 144.67147964 -143.60356522 144.66641617 C-164.37565595 144.41540559 -183.47498988 139.22350649 -198.92607498 124.68130875 C-212.00051542 110.90238181 -216.48547787 94.70275213 -216.26347733 76.16714859 C-215.61107263 58.67992662 -207.83095678 43.25192389 -195.03935623 31.32193375 C-177.63496633 16.93814044 -155.85188919 12.43804115 -134.17607498 8.74380875 C-133.0462117 8.54972427 -131.91634842 8.3556398 -130.75224686 8.15567398 C-109.73773258 4.74153905 -88.48626295 2.84765535 -67.23857498 1.68130875 C-66.11396866 1.61876907 -64.98936234 1.5562294 -63.83067703 1.49179459 C-42.55860235 0.35043062 -21.29873994 0.04192607 0 0 Z M-77.55107498 22.86880875 C-85.28305487 23.66976256 -92.9932058 24.41809174 -100.75419998 24.8492775 C-108.07861402 25.26755183 -115.29484239 26.10910681 -122.55107498 27.18130875 C-123.75924881 27.35871597 -124.96742264 27.5361232 -126.21220779 27.7189064 C-144.74078215 30.51525249 -164.4686782 33.59753518 -179.67607498 45.36880875 C-180.97544998 46.23505875 -180.97544998 46.23505875 -182.30107498 47.11880875 C-190.84023706 55.20854125 -195.56470761 65.42102421 -196.19755936 77.15323257 C-196.43530807 88.90905725 -193.43128978 100.50605824 -185.53935623 109.51334 C-175.18694654 119.82234336 -162.35721747 123.47908124 -147.95341873 123.57193375 C-146.85766777 123.58211533 -146.85766777 123.58211533 -145.73978043 123.59250259 C-143.36433506 123.60948091 -140.98907721 123.61570998 -138.61357498 123.61880875 C-137.39278244 123.62231339 -137.39278244 123.62231339 -136.14732742 123.62588882 C-122.28669553 123.64081279 -108.77070368 122.67826146 -95.01201248 121.02505875 C-89.24968125 120.36010707 -83.47374263 119.94007366 -77.67607498 120.36880875 C-75.58133736 122.46354637 -76.32086966 126.97299832 -76.21123123 129.86978531 C-76.17367722 130.76278839 -76.1361232 131.65579147 -76.09743118 132.57585526 C-75.97332015 135.5535481 -75.8559795 138.53146953 -75.73857498 141.50943375 C-75.65315396 143.58763771 -75.56729134 145.66582357 -75.48100662 147.74399185 C-75.25365404 153.24643204 -75.03192222 158.74908469 -74.81145096 164.25180435 C-74.5460101 170.85371833 -74.27442538 177.45538157 -74.00339127 184.05706787 C-73.79170501 189.21496954 -73.58098782 194.37290333 -73.37358475 199.53097916 C-72.99503 208.91443416 -72.60127819 218.29706495 -72.16728592 227.67813492 C-72.129888 228.50946316 -72.09249008 229.3407914 -72.05395889 230.1973114 C-71.70618086 237.55476266 -71.11820967 244.88698414 -70.42045975 252.21915054 C-70.34030624 253.06633652 -70.26015274 253.91352249 -70.17757034 254.78638077 C-70.09457687 255.659207 -70.0115834 256.53203323 -69.92607498 257.43130875 C-69.75002835 259.30604734 -69.57417125 261.18080373 -69.39848709 263.05557632 C-69.11964415 266.02656434 -68.83998889 268.99746583 -68.55801773 271.96815872 C-67.9422463 278.46762343 -67.35298919 284.9689706 -66.78065872 291.47240067 C-66.37569552 296.0518206 -65.95918781 300.63015389 -65.54094315 305.20837784 C-65.34340699 307.39557043 -65.1502621 309.58316528 -64.96208572 311.77118301 C-61.85381183 349.96075159 -61.85381183 349.96075159 -44.67607498 383.36880875 C-44.14369217 384.01334 -43.61130936 384.65787125 -43.06279373 385.32193375 C-35.97043587 393.10829321 -25.75610766 398.16754623 -15.22294998 398.70474625 C-3.42331826 398.92811778 7.3624833 398.36976814 16.40595627 389.82974625 C20.70320334 384.31596691 23.55463512 377.75810662 26.32392502 371.36880875 C26.64506271 370.66908951 26.96620041 369.96937027 27.29706955 369.24844742 C32.838141 353.7094703 32.98524986 336.71641041 32.82392502 320.43130875 C32.81938309 319.35397476 32.81484116 318.27664078 32.81016159 317.16666031 C32.72505659 299.7892724 31.61404407 282.7015074 29.49189377 265.46255875 C26.11548608 237.79616203 24.5607551 210.01506439 23.26368332 182.18790054 C23.09261734 178.56638871 22.91285348 174.94532885 22.73309422 171.32423973 C22.55694483 167.7567918 22.38567219 164.18912204 22.21583748 160.62136841 C22.13621518 158.95760083 22.05534038 157.29389256 21.97301292 155.63025665 C21.70684907 150.21092124 21.49496025 144.7919451 21.32392502 139.36880875 C21.29214031 138.48119606 21.26035561 137.59358337 21.22760773 136.67907333 C21.13750989 133.93620519 21.07775813 131.19418251 21.02582932 128.45035172 C20.99520558 127.60214418 20.96458185 126.75393665 20.93303013 125.88002586 C20.86738916 119.9912234 20.86738916 119.9912234 23.18731308 116.82837296 C25.88749512 114.98382225 27.37618396 114.91795059 30.62861252 115.04068375 C31.69305588 115.07742203 32.75749924 115.11416031 33.85419846 115.15201187 C40.06382294 115.54000417 46.25606683 116.02107342 52.44892502 116.61880875 C53.48806549 116.71568481 53.48806549 116.71568481 54.5481987 116.81451797 C64.10731947 117.71044209 73.54019335 118.96129718 83.01142502 120.55630875 C101.76906303 123.62378487 120.60294759 124.98700808 137.38642502 114.49380875 C138.72662019 113.48802418 140.04125559 112.44699464 141.32392502 111.36880875 C141.95685471 110.84544937 142.58978439 110.32209 143.24189377 109.78287125 C148.10298733 105.3674643 150.82864371 100.39221673 153.32392502 94.36880875 C153.64490158 93.63275406 153.96587814 92.89669937 154.29658127 92.13834 C157.73496843 82.84669842 158.16041968 70.16819491 154.76142502 60.80630875 C148.22270016 47.54659493 137.6081593 40.90232716 124.32392502 35.36880875 C122.71517502 34.63210953 122.71517502 34.63210953 121.07392502 33.8805275 C86.98052554 19.32110146 43.67246555 19.83169097 7.09974289 20.10452652 C4.06711711 20.1235582 1.03455218 20.12763397 -1.99812508 20.13138199 C-39.83667784 20.16066712 -39.83667784 20.16066712 -77.55107498 22.86880875 Z " fill="#060606" transform="translate(310.67607498168945,100.63119125366211)"/>
</svg>
